<svg class="svg-icon" style="width: 1em; height: 1em;vertical-align: middle;fill: currentColor;overflow: hidden;" viewBox="0 0 1024 1024" version="1.1" xmlns="http://www.w3.org/2000/svg"><path d="M155.106092 1019.696879h-6.797979c-6.797979-3.39899-10.196969-10.196969-10.196969-16.994948V146.156553C138.111144 64.580802 202.691947 0 284.267697 0h458.863596c10.196969 0 16.994948 6.797979 16.994948 16.994948s-10.196969 16.994948-16.994948 16.994948C698.944428 33.989896 681.94948 67.979792 681.94948 101.969688v84.97474c0 10.196969-6.797979 16.994948-16.994948 16.994948s-16.994948-6.797979-16.994948-16.994948V101.969688c0-27.191917 6.797979-50.984844 20.393937-67.979792H284.267697C223.085884 33.989896 172.10104 84.97474 172.10104 146.156553v819.156493l227.732303-210.737355c6.797979-6.797979 16.994948-6.797979 23.792927 0 125.762615 115.565646 193.742407 176.747459 227.732303 210.737355v-231.131293c0-10.196969 6.797979-16.994948 16.994948-16.994948s16.994948 6.797979 16.994948 16.994948v278.717147c-3.39899 6.797979-10.196969 13.595958-20.393937 10.196969-3.39899 0-6.797979-3.39899-10.196969-6.797979-13.595958-13.595958-146.156553-135.959584-241.328261-224.333314L168.702051 1019.696879h-13.595959z" fill="" /><path d="M834.904012 169.94948h-169.94948c-10.196969 0-16.994948-6.797979-16.994948-16.994948s6.797979-16.994948 16.994948-16.994948H817.909064V101.969688c0-37.388886-30.590906-67.979792-67.979792-67.979792-10.196969 0-16.994948-6.797979-16.994948-16.994948s6.797979-16.994948 16.994948-16.994948c57.782823 0 101.969688 44.186865 101.969688 101.969688v50.984844c0 10.196969-6.797979 16.994948-16.994948 16.994948zM732.934324 475.858544h-135.959584c-10.196969 0-16.994948-6.797979-16.994948-16.994948s6.797979-16.994948 16.994948-16.994948h135.959584c10.196969 0 16.994948 6.797979 16.994948 16.994948s-6.797979 16.994948-16.994948 16.994948z" fill="" /><path d="M664.954532 543.838336c-10.196969 0-16.994948-6.797979-16.994948-16.994948v-135.959584c0-10.196969 6.797979-16.994948 16.994948-16.994948s16.994948 6.797979 16.994948 16.994948v135.959584c0 10.196969-6.797979 16.994948-16.994948 16.994948z" fill="" /><path d="M664.954532 679.797919c-122.363626 0-220.934324-98.570698-220.934324-220.934323S542.590906 237.929272 664.954532 237.929272 885.888856 336.49997 885.888856 458.863596 787.318157 679.797919 664.954532 679.797919z m0-407.878751c-101.969688 0-186.944428 84.97474-186.944428 186.944428s84.97474 186.944428 186.944428 186.944427 186.944428-84.97474 186.944428-186.944427S766.92422 271.919168 664.954532 271.919168z" fill="" /></svg>